<svg viewBox="0 0 1026.31 1064.882" xmlns="http://www.w3.org/2000/svg"><path d="M597.854 1045.333H245.32v-46.545h352.348c54.982-.107 104.745-22.368 140.853-58.328l219.223-219.222c13.18-12.905 21.35-30.88 21.35-50.764 0-39.228-31.8-71.028-71.03-71.028-19.79 0-37.69 8.094-50.57 21.153L610.56 867.53h-51.99v-46.544c36.194-.07 65.508-29.426 65.508-65.63 0-3.73-.31-7.39-.91-10.95l.053.385c-7.024-31.713-34.905-55.08-68.244-55.08-.553 0-1.105.006-1.655.02l.083-.003H373.458l-48.175-23.83c-25.083-12.67-54.676-20.09-86.002-20.09-46.28 0-88.78 16.196-122.14 43.228l.364-.285c-43.404 34.8-70.957 87.822-70.957 147.277 0 .996.008 1.99.023 2.982l-.002-.15v5.398H.023v-4.98c-.015-.98-.023-2.135-.023-3.293 0-74.088 34.352-140.152 87.996-183.135l.463-.36c40.912-33.143 93.598-53.21 150.972-53.21 38.85 0 75.55 9.2 108.04 25.542l-1.383-.63 38.4 18.99h168.4c.663-.014 1.445-.02 2.23-.02 55.834 0 102.484 39.324 113.763 91.788l.138.765v.884q.513 2.93.84 5.864l154.81-154.81c21.364-21.837 51.134-35.377 84.066-35.377 64.934 0 117.574 52.64 117.574 117.574 0 33.072-13.654 62.954-35.632 84.317l-.028.027-219.183 219.183c-44.506 44.32-105.836 71.777-173.58 71.96h-.035zM556.708 867.53H334.22v-46.546H556.71zM177.828 21.332h112.175c135.408.16 245.136 109.886 245.295 245.28V289.9H423.123c-135.408-.16-245.136-109.886-245.295-245.28v-.014zM487.4 243.355C475.234 144.115 391.526 68 290.015 67.88h-64.292c12.168 99.238 95.876 175.354 197.387 175.475h.012zm113.526 91.23H488.75V311.31c.16-135.407 109.887-245.135 245.28-245.294h112.19V89.29c-.16 135.407-109.886 245.135-245.28 245.294h-.014zm-64.28-46.547h64.28c101.523-.12 185.23-76.237 197.303-174.513l.095-.963h-64.28c-101.522.12-185.23 76.237-197.302 174.513l-.096.963zm-1.35 156.393h-46.544V266.628h46.545zm215.785 277.83l-45.195-11.077c3.153-12.346 4.963-26.52 4.963-41.115 0-1.124-.01-2.245-.032-3.363l.003.167v-.372c-.388-109.473-89.222-198.068-198.75-198.068-97.75 0-179.017 70.567-195.638 163.537l-.178 1.203-45.847-7.96C291.057 508.89 391.405 421.69 512.12 421.69c135.186 0 244.83 109.36 245.292 244.44v.044c.02 1.086.03 2.367.03 3.65 0 18.618-2.32 36.693-6.685 53.953l.325-1.515z"/></svg>